<svg width="1328" height="239" viewBox="0 0 1328 239" fill="none" xmlns="http://www.w3.org/2000/svg">
<rect x="7.5" y="7.5" width="1313" height="224" rx="72.5" stroke="black" stroke-width="15"/>
<path d="M35.9358 217.827V69.3605H52.9658L53.4025 95.5605L50.7824 94.2505C53.6936 85.226 58.4969 78.3849 65.1925 73.7271C72.0336 69.0694 79.8936 66.7405 88.7725 66.7405C100.271 66.7405 109.66 69.5788 116.937 75.2555C124.361 80.9321 129.819 88.3555 133.312 97.5255C136.806 106.695 138.552 116.593 138.552 127.219C138.552 137.844 136.806 147.742 133.312 156.912C129.819 166.082 124.361 173.505 116.937 179.182C109.66 184.859 100.271 187.697 88.7725 187.697C82.8047 187.697 77.2008 186.678 71.9608 184.64C66.8663 182.603 62.4997 179.764 58.8608 176.125C55.3675 172.487 52.9658 168.193 51.6558 163.244L54.2758 160.187V217.827H35.9358ZM87.0258 170.23C97.0691 170.23 104.929 166.446 110.606 158.877C116.428 151.308 119.339 140.755 119.339 127.219C119.339 113.682 116.428 103.129 110.606 95.5605C104.929 87.9916 97.0691 84.2071 87.0258 84.2071C80.3302 84.2071 74.508 85.8083 69.5591 89.0105C64.7558 92.2127 60.9713 97.016 58.2058 103.42C55.5858 109.825 54.2758 117.758 54.2758 127.219C54.2758 136.68 55.5858 144.613 58.2058 151.017C60.8258 157.422 64.6102 162.225 69.5591 165.427C74.508 168.629 80.3302 170.23 87.0258 170.23ZM195.889 185.077V61.0638C195.889 56.406 194.579 52.7671 191.959 50.1471C189.339 47.5271 185.7 46.2171 181.042 46.2171H153.75V30.0605H181.915C192.541 30.0605 200.547 32.826 205.932 38.3571C211.463 43.7427 214.229 51.7483 214.229 62.3738V185.077H195.889ZM149.384 185.077V168.92H254.184V185.077H149.384ZM304.315 187.697C297.037 187.697 290.487 186.387 284.665 183.767C278.843 181.147 274.258 177.508 270.91 172.85C267.562 168.047 265.889 162.516 265.889 156.257C265.889 146.359 268.8 138.718 274.622 133.332C280.59 127.801 289.905 123.798 302.569 121.324L341.432 113.464C341.432 103.566 339.176 96.2155 334.664 91.4121C330.297 86.6088 323.965 84.2071 315.669 84.2071C307.663 84.2071 301.404 86.0266 296.892 89.6655C292.38 93.1588 289.25 98.2533 287.504 104.949L268.072 103.42C270.255 92.5038 275.422 83.6977 283.574 77.0021C291.87 70.161 302.569 66.7405 315.669 66.7405C329.642 66.7405 340.486 70.9616 348.2 79.4038C355.915 87.7005 359.772 99.1994 359.772 113.9V161.934C359.772 164.554 360.354 166.373 361.519 167.392C362.683 168.411 364.43 168.92 366.759 168.92H374.182V185.077C373.309 185.223 371.926 185.295 370.034 185.295C368.141 185.441 366.322 185.514 364.575 185.514C359.626 185.514 355.405 184.713 351.912 183.112C348.564 181.511 346.017 178.964 344.27 175.47C342.524 171.832 341.577 167.174 341.432 161.497H344.925C343.906 166.446 341.432 170.958 337.502 175.034C333.717 178.964 328.914 182.093 323.092 184.422C317.27 186.605 311.011 187.697 304.315 187.697ZM306.062 171.54C313.922 171.54 320.472 170.23 325.712 167.61C330.952 164.845 334.882 161.06 337.502 156.257C340.122 151.308 341.432 145.632 341.432 139.227V129.184L306.062 136.17C298.202 137.626 292.744 139.882 289.687 142.939C286.63 145.85 285.102 149.707 285.102 154.51C285.102 159.896 286.921 164.117 290.56 167.174C294.345 170.085 299.512 171.54 306.062 171.54ZM402.043 217.827V201.67H415.362C419.437 201.67 422.421 201.015 424.313 199.705C426.351 198.541 427.879 196.576 428.898 193.81L433.047 182.894H426.715L383.703 69.3605H403.79L438.942 165.864L471.91 69.3605H491.997L445.055 199.705C442.872 205.964 439.597 210.549 435.23 213.46C430.863 216.372 424.823 217.827 417.108 217.827H402.043ZM536.015 185.077V61.9371C536.015 51.6027 538.635 43.7427 543.875 38.3571C549.26 32.826 557.411 30.0605 568.328 30.0605H605.445V46.2171H568.328C563.816 46.2171 560.322 47.6727 557.848 50.5838C555.519 53.3494 554.355 57.1338 554.355 61.9371V185.077H536.015ZM505.011 85.5171V69.3605H603.261V85.5171H505.011ZM671.514 185.077V69.3605H689.854V185.077H671.514ZM625.009 185.077V168.92H729.809V185.077H625.009ZM627.193 85.5171V69.3605H689.854V85.5171H627.193ZM669.768 51.2388V29.8421H688.981V51.2388H669.768ZM790.202 220.447C781.906 220.447 774.41 219.064 767.714 216.299C761.018 213.533 755.415 209.603 750.902 204.509C746.39 199.414 743.333 193.519 741.732 186.824L760.946 185.514C762.692 190.899 765.749 195.12 770.116 198.177C774.628 201.379 781.323 202.98 790.202 202.98C800.682 202.98 808.688 200.87 814.219 196.649C819.896 192.428 822.734 186.096 822.734 177.654V158.877C819.968 164.99 815.529 169.867 809.416 173.505C803.302 177.144 796.461 178.964 788.892 178.964C779.14 178.964 770.407 176.562 762.692 171.759C755.123 166.955 749.156 160.333 744.789 151.89C740.568 143.448 738.457 133.769 738.457 122.852C738.457 111.79 740.568 102.11 744.789 93.8138C749.01 85.3716 754.832 78.7488 762.256 73.9455C769.825 69.1421 778.412 66.7405 788.019 66.7405C796.17 66.7405 803.448 68.6327 809.852 72.4171C816.402 76.2016 820.987 81.296 823.607 87.7005V69.3605H841.074V177.217C841.074 186.242 839.036 193.956 834.961 200.36C830.885 206.91 825.063 211.859 817.494 215.207C809.925 218.7 800.828 220.447 790.202 220.447ZM789.766 161.497C799.663 161.497 807.596 158.077 813.564 151.235C819.532 144.249 822.588 134.788 822.734 122.852C822.88 114.847 821.57 108.005 818.804 102.329C816.184 96.5066 812.327 92.0671 807.232 89.0105C802.283 85.8083 796.461 84.2071 789.766 84.2071C779.577 84.2071 771.644 87.7005 765.967 94.6871C760.436 101.528 757.671 110.917 757.671 122.852C757.671 134.788 760.509 144.249 766.186 151.235C772.008 158.077 779.868 161.497 789.766 161.497ZM865.005 185.077V30.0605H883.345V94.9055L881.162 94.4688C882.618 88.0644 885.092 82.8244 888.585 78.7488C892.079 74.6733 896.373 71.6894 901.467 69.7972C906.562 67.7594 912.093 66.7405 918.06 66.7405C926.357 66.7405 933.344 68.6327 939.02 72.4171C944.843 76.056 949.209 81.2233 952.12 87.9188C955.177 94.4688 956.705 102.038 956.705 110.625V185.077H938.365V115.865C938.365 104.658 936.328 96.361 932.252 90.9755C928.322 85.5899 922.282 82.8971 914.13 82.8971C904.815 82.8971 897.319 85.7355 891.642 91.4121C886.111 97.0888 883.345 105.313 883.345 116.084V185.077H865.005ZM1043.52 185.077C1032.31 185.077 1023.94 182.457 1018.41 177.217C1012.88 171.977 1010.11 163.972 1010.11 153.2V42.2871H1028.45V153.2C1028.45 158.586 1029.69 162.589 1032.16 165.209C1034.64 167.683 1038.42 168.92 1043.52 168.92H1074.52V185.077H1043.52ZM971.903 85.5171V69.3605H1074.52V85.5171H971.903ZM1146.27 187.697C1135.35 187.697 1125.89 185.223 1117.88 180.274C1110.02 175.325 1103.91 168.338 1099.54 159.314C1095.32 150.144 1093.21 139.445 1093.21 127.219C1093.21 114.992 1095.32 104.367 1099.54 95.3421C1103.91 86.3177 1109.95 79.331 1117.66 74.3821C1125.52 69.2877 1134.77 66.7405 1145.39 66.7405C1155.44 66.7405 1164.32 69.1421 1172.03 73.9455C1179.74 78.6033 1185.78 85.4444 1190.15 94.4688C1194.52 103.493 1196.7 114.483 1196.7 127.437V132.895H1112.42C1113.15 145.268 1116.43 154.583 1122.25 160.842C1128.22 167.101 1136.22 170.23 1146.27 170.23C1153.84 170.23 1160.02 168.484 1164.82 164.99C1169.77 161.352 1173.19 156.621 1175.09 150.799L1194.74 152.327C1191.68 162.662 1185.86 171.177 1177.27 177.872C1168.83 184.422 1158.49 187.697 1146.27 187.697ZM1112.42 116.739H1176.61C1175.74 105.531 1172.47 97.3071 1166.79 92.0671C1161.11 86.8271 1153.98 84.2071 1145.39 84.2071C1136.51 84.2071 1129.16 86.9727 1123.34 92.5038C1117.66 97.8894 1114.03 105.968 1112.42 116.739ZM1246.4 185.077V69.3605H1261.68L1263.43 98.6171L1261.68 98.1805C1263.14 88.2827 1266.26 81.0049 1271.07 76.3471C1276.02 71.6894 1282.57 69.3605 1290.72 69.3605H1314.52V85.9538H1290.94C1285.26 85.9538 1280.46 87.1183 1276.53 89.4471C1272.74 91.6305 1269.83 94.9055 1267.79 99.2721C1265.76 103.493 1264.74 108.806 1264.74 115.21V185.077H1246.4ZM1216.27 185.077V168.92H1301.42V185.077H1216.27ZM1216.27 85.5171V69.3605H1256.44V85.5171H1216.27Z" fill="black"/>
</svg>
