<svg width="1315" height="260" viewBox="0 0 1315 260" fill="none" xmlns="http://www.w3.org/2000/svg">
<rect x="5" y="5" width="1305" height="250" rx="75" stroke="black" stroke-width="10"/>
<path d="M30.5908 240.827V92.3605H43.9091L44.3458 122.49L41.9441 121.399C44.8552 111.064 49.8041 103.204 56.7908 97.8188C63.923 92.4333 72.2197 89.7405 81.6808 89.7405C92.5975 89.7405 101.695 92.506 108.972 98.0371C116.25 103.423 121.709 110.7 125.347 119.87C128.986 128.895 130.806 139.011 130.806 150.219C130.806 161.427 128.986 171.615 125.347 180.785C121.709 189.81 116.25 197.088 108.972 202.619C101.84 208.004 92.8158 210.697 81.8991 210.697C75.4947 210.697 69.5269 209.46 63.9958 206.985C58.6102 204.365 54.0252 200.872 50.2408 196.505C46.4563 192.139 43.9819 187.19 42.8175 181.659L45.0008 178.82V240.827H30.5908ZM80.8075 196.942C91.5786 196.942 100.021 192.794 106.134 184.497C112.393 176.2 115.522 164.774 115.522 150.219C115.522 135.663 112.393 124.237 106.134 115.94C100.021 107.644 91.5058 103.495 80.5891 103.495C73.4569 103.495 67.198 105.388 61.8125 109.172C56.5725 112.811 52.4241 118.124 49.3675 125.11C46.4563 132.097 45.0008 140.467 45.0008 150.219C45.0008 159.971 46.4563 168.34 49.3675 175.327C52.4241 182.314 56.6452 187.699 62.0308 191.484C67.4163 195.123 73.6752 196.942 80.8075 196.942ZM191.854 208.077V81.4438C191.854 76.4949 190.471 72.7105 187.705 70.0905C185.085 67.3249 181.301 65.9421 176.352 65.9421H149.279V53.0605H176.789C186.25 53.0605 193.528 55.6077 198.622 60.7021C203.717 65.7966 206.264 73.0744 206.264 82.5355V208.077H191.854ZM144.912 208.077V195.195H246.655V208.077H144.912ZM298.534 210.697C291.256 210.697 284.706 209.387 278.884 206.767C273.207 204.147 268.695 200.508 265.347 195.85C262.145 191.193 260.544 185.734 260.544 179.475C260.544 169.869 263.6 162.373 269.714 156.987C275.972 151.602 284.997 147.744 296.787 145.415L337.834 137.337C337.834 125.693 335.359 117.178 330.41 111.792C325.607 106.261 318.547 103.495 309.232 103.495C300.353 103.495 293.366 105.606 288.272 109.827C283.177 114.048 279.757 120.016 278.01 127.73L262.727 126.42C264.91 115.213 270.005 106.334 278.01 99.7838C286.016 93.0883 296.423 89.7405 309.232 89.7405C322.914 89.7405 333.467 93.816 340.89 101.967C348.459 110.118 352.244 121.763 352.244 136.9V185.152C352.244 189.082 352.899 191.775 354.209 193.23C355.519 194.54 357.556 195.195 360.322 195.195H367.527V208.077C366.654 208.223 365.344 208.295 363.597 208.295C361.85 208.441 360.176 208.514 358.575 208.514C354.063 208.514 350.279 207.786 347.222 206.33C344.165 204.729 341.836 202.109 340.235 198.47C338.634 194.686 337.761 189.664 337.615 183.405H340.454C339.289 188.5 336.669 193.158 332.594 197.379C328.664 201.454 323.715 204.729 317.747 207.204C311.925 209.533 305.52 210.697 298.534 210.697ZM299.844 197.815C307.849 197.815 314.69 196.36 320.367 193.449C326.044 190.392 330.337 186.244 333.249 181.004C336.305 175.618 337.834 169.505 337.834 162.664V150L299.844 157.424C291.547 159.025 285.434 161.499 281.504 164.847C277.719 168.195 275.827 172.634 275.827 178.165C275.827 184.424 277.937 189.3 282.159 192.794C286.38 196.142 292.275 197.815 299.844 197.815ZM396.48 240.827V227.945H408.27C413.073 227.945 416.567 227.145 418.75 225.544C421.079 224.088 422.971 221.468 424.427 217.684L428.793 205.894H423.335L379.45 92.3605H395.17L433.16 193.012L468.748 92.3605H484.468L436.872 222.487C434.543 228.892 431.268 233.549 427.047 236.46C422.971 239.372 417.076 240.827 409.362 240.827H396.48ZM531.98 208.077V82.3171C531.98 73.0016 534.454 65.7966 539.403 60.7021C544.497 55.6077 551.921 53.0605 561.673 53.0605H598.79V65.9421H561.455C556.651 65.9421 552.94 67.3977 550.32 70.3088C547.7 73.0744 546.39 77.0044 546.39 82.0988V208.077H531.98ZM499.666 105.242V92.3605H596.606V105.242H499.666ZM667.479 208.077V92.3605H681.889V208.077H667.479ZM620.538 208.077V195.195H722.281V208.077H620.538ZM622.721 105.242V92.3605H681.889V105.242H622.721ZM666.169 73.1471V53.7155H681.453V73.1471H666.169ZM783.766 243.447C775.615 243.447 768.191 241.992 761.496 239.08C754.946 236.315 749.56 232.385 745.339 227.29C741.118 222.196 738.425 216.301 737.261 209.605L752.326 208.732C753.636 214.991 756.838 220.013 761.932 223.797C767.027 227.727 774.305 229.692 783.766 229.692C794.973 229.692 803.634 227.072 809.747 221.832C815.861 216.592 818.917 208.95 818.917 198.907V179.039C815.861 186.025 811.13 191.629 804.726 195.85C798.467 200.072 791.116 202.182 782.674 202.182C772.922 202.182 764.334 199.853 756.911 195.195C749.487 190.392 743.665 183.769 739.444 175.327C735.223 166.885 733.112 157.06 733.112 145.852C733.112 134.644 735.15 124.892 739.226 116.595C743.447 108.153 749.196 101.603 756.474 96.9455C763.897 92.1421 772.485 89.7405 782.237 89.7405C790.971 89.7405 798.612 91.9966 805.162 96.5088C811.858 100.875 816.588 106.698 819.354 113.975V92.3605H833.327V198.907C833.327 208.077 831.29 216.01 827.214 222.705C823.284 229.401 817.607 234.495 810.184 237.989C802.906 241.628 794.1 243.447 783.766 243.447ZM783.329 188.427C793.955 188.427 802.47 184.643 808.874 177.074C815.424 169.359 818.772 158.952 818.917 145.852C818.917 137.41 817.462 130.059 814.551 123.8C811.64 117.396 807.491 112.447 802.106 108.954C796.72 105.315 790.461 103.495 783.329 103.495C772.412 103.495 763.825 107.353 757.566 115.067C751.452 122.636 748.396 132.898 748.396 145.852C748.396 158.952 751.525 169.359 757.784 177.074C764.043 184.643 772.558 188.427 783.329 188.427ZM860.534 208.077V53.0605H874.944V119.87L873.197 119.652C874.362 112.811 876.69 107.207 880.184 102.84C883.823 98.4738 888.335 95.1988 893.72 93.0155C899.106 90.8321 904.928 89.7405 911.187 89.7405C919.629 89.7405 926.689 91.6327 932.365 95.4171C938.188 99.2016 942.482 104.442 945.247 111.137C948.158 117.687 949.614 125.183 949.614 133.625V208.077H935.204V138.865C935.204 127.221 933.02 118.269 928.654 112.01C924.433 105.752 917.592 102.622 908.13 102.622C897.942 102.622 889.863 105.897 883.895 112.447C877.928 118.852 874.944 127.73 874.944 139.084V208.077H860.534ZM1035.99 208.077C1026.09 208.077 1018.52 205.603 1013.28 200.654C1008.19 195.705 1005.64 188.354 1005.64 178.602V65.2871H1020.05V179.039C1020.05 184.424 1021.36 188.5 1023.98 191.265C1026.6 193.885 1030.53 195.195 1035.77 195.195H1066.99V208.077H1035.99ZM966.558 105.242V92.3605H1066.99V105.242H966.558ZM1140.27 210.697C1129.35 210.697 1119.96 208.15 1112.1 203.055C1104.39 197.815 1098.49 190.683 1094.42 181.659C1090.34 172.489 1088.3 162.009 1088.3 150.219C1088.3 138.429 1090.34 128.022 1094.42 118.997C1098.49 109.827 1104.31 102.695 1111.88 97.6005C1119.6 92.3605 1128.77 89.7405 1139.39 89.7405C1149.87 89.7405 1158.82 92.2149 1166.25 97.1638C1173.82 102.113 1179.64 109.099 1183.71 118.124C1187.94 127.148 1190.05 137.701 1190.05 149.782V154.367H1103.37C1103.95 168.049 1107.52 178.602 1114.07 186.025C1120.62 193.303 1129.35 196.942 1140.27 196.942C1148.85 196.942 1155.84 194.904 1161.23 190.829C1166.61 186.753 1170.32 181.368 1172.36 174.672L1187.86 175.764C1184.95 185.953 1179.28 194.322 1170.83 200.872C1162.54 207.422 1152.35 210.697 1140.27 210.697ZM1103.37 141.485H1174.11C1173.38 129.113 1169.96 119.725 1163.85 113.32C1157.73 106.77 1149.58 103.495 1139.39 103.495C1129.5 103.495 1121.34 106.77 1114.94 113.32C1108.54 119.87 1104.68 129.259 1103.37 141.485ZM1242.14 208.077V92.3605H1254.15L1255.68 124.019L1253.71 123.145C1255.46 112.665 1258.81 104.951 1263.76 100.002C1268.85 94.9077 1275.69 92.3605 1284.28 92.3605H1306.99V105.679H1284.06C1278.39 105.679 1273.51 106.989 1269.43 109.609C1265.36 112.229 1262.16 115.94 1259.83 120.744C1257.64 125.547 1256.55 131.151 1256.55 137.555V208.077H1242.14ZM1210.92 208.077V195.195H1293.89V208.077H1210.92ZM1210.92 105.242V92.3605H1250V105.242H1210.92Z" fill="black"/>
</svg>
